<svg xmlns="http://www.w3.org/2000/svg" version="1.1" width="500px" height="500px" style="shape-rendering:geometricPrecision; text-rendering:geometricPrecision; image-rendering:optimizeQuality; fill-rule:evenodd; clip-rule:evenodd" xmlns:xlink="http://www.w3.org/1999/xlink">
<g></g>
<g><path style="opacity:1" fill="#24c964" d="M 278.5,183.5 C 278.649,182.448 278.483,181.448 278,180.5C 276.622,185.208 273.788,188.708 269.5,191C 261.272,192.888 253.272,195.388 245.5,198.5C 243.589,199.075 241.922,200.075 240.5,201.5C 240.5,200.5 240.5,199.5 240.5,198.5C 239.127,198.343 237.793,198.51 236.5,199C 234.599,201.613 232.265,203.28 229.5,204C 231.547,201.946 231.547,200.946 229.5,201C 225.008,205.5 221.675,210.667 219.5,216.5C 220.14,203.374 226.807,195.208 239.5,192C 246.48,190.559 253.48,189.226 260.5,188C 269.232,185.683 272.732,180.183 271,171.5C 268.833,168 266,165.167 262.5,163C 270.544,162.359 276.044,165.859 279,173.5C 279.808,177.027 279.641,180.36 278.5,183.5 Z" data-index="1"></path></g>
<g><path style="opacity:1" fill="#15c565" d="M 319.5,168.5 C 322.389,162.428 320.389,158.262 313.5,156C 305.742,154.256 300.409,157.089 297.5,164.5C 297.624,165.107 297.957,165.44 298.5,165.5C 297.884,168.08 297.551,170.747 297.5,173.5C 299.24,182.505 299.74,191.505 299,200.5C 301.403,198.695 303.07,196.362 304,193.5C 303.583,184.822 303.749,176.156 304.5,167.5C 306.067,171.232 308.234,174.565 311,177.5C 316.833,186 317.833,195 314,204.5C 312.669,206.996 310.836,208.996 308.5,210.5C 308.196,209.85 307.863,209.183 307.5,208.5C 313.499,200.167 313.999,191.5 309,182.5C 308.945,200.548 299.779,209.048 281.5,208C 268.675,211.732 258.341,218.899 250.5,229.5C 251.223,221.698 253.39,214.365 257,207.5C 259.906,204.963 263.073,202.796 266.5,201C 272.506,198.832 278.506,196.666 284.5,194.5C 286.959,191.861 288.292,188.694 288.5,185C 287.13,178.548 286.63,172.048 287,165.5C 290.33,155.749 297.163,150.749 307.5,150.5C 313.568,150.244 318.735,152.244 323,156.5C 328.099,165.793 325.599,171.293 315.5,173C 317.07,171.603 318.404,170.103 319.5,168.5 Z" data-index="2"></path></g>
<g><path style="opacity:1" fill="#82ea6f" d="M 319.5,168.5 C 318.265,159.864 313.265,156.697 304.5,159C 301.614,160.385 299.614,162.551 298.5,165.5C 297.957,165.44 297.624,165.107 297.5,164.5C 300.409,157.089 305.742,154.256 313.5,156C 320.389,158.262 322.389,162.428 319.5,168.5 Z" data-index="3"></path></g>
<g><path style="opacity:1" fill="#57d798" d="M 291.5,164.5 C 292.166,168.486 292.499,172.653 292.5,177C 292.612,181.944 292.112,186.777 291,191.5C 291.168,182.509 291.335,173.509 291.5,164.5 Z" data-index="4"></path></g>
<g><path style="opacity:1" fill="#82e39d" d="M 245.5,198.5 C 242.835,201.335 240.335,204.335 238,207.5C 237.227,213.49 235.727,219.157 233.5,224.5C 233.22,215.931 235.554,208.264 240.5,201.5C 241.922,200.075 243.589,199.075 245.5,198.5 Z" data-index="5"></path></g>
<g><path style="opacity:1" fill="#48d665" d="M 278.5,183.5 C 276.787,186.725 274.454,189.559 271.5,192C 263.922,195.706 256.422,199.539 249,203.5C 248,205.167 247,206.833 246,208.5C 245.474,215.171 244.974,221.837 244.5,228.5C 243.182,232.332 240.848,235.499 237.5,238C 229.167,242.333 220.833,246.667 212.5,251C 208.305,254.03 204.639,257.53 201.5,261.5C 202.092,258.309 203.259,255.309 205,252.5C 210.919,244.579 218.086,238.079 226.5,233C 229.21,230.372 231.544,227.539 233.5,224.5C 235.727,219.157 237.227,213.49 238,207.5C 240.335,204.335 242.835,201.335 245.5,198.5C 253.272,195.388 261.272,192.888 269.5,191C 273.788,188.708 276.622,185.208 278,180.5C 278.483,181.448 278.649,182.448 278.5,183.5 Z" data-index="6"></path></g>
<g><path style="opacity:1" fill="#aff872" d="M 308.5,210.5 C 306.422,213.051 303.756,214.884 300.5,216C 293.94,217.845 287.274,219.179 280.5,220C 279.748,220.671 279.414,221.504 279.5,222.5C 277.745,223.072 276.078,223.906 274.5,225C 271.268,228.062 268.268,231.229 265.5,234.5C 267.866,229.626 271.2,225.459 275.5,222C 269.748,223.478 264.914,226.645 261,231.5C 262.627,227.524 265.46,224.357 269.5,222C 278.502,218.473 287.835,216.139 297.5,215C 301.188,213.487 304.855,211.987 308.5,210.5 Z" data-index="7"></path></g>
<g><path style="opacity:1" fill="#91ee73" d="M 278.5,183.5 C 277.98,187.536 275.98,190.703 272.5,193C 267.226,196.47 261.56,199.136 255.5,201C 251.839,203.663 249.339,207.163 248,211.5C 247.226,217.391 246.059,223.057 244.5,228.5C 244.974,221.837 245.474,215.171 246,208.5C 247,206.833 248,205.167 249,203.5C 256.422,199.539 263.922,195.706 271.5,192C 274.454,189.559 276.787,186.725 278.5,183.5 Z" data-index="8"></path></g>
<g><path style="opacity:1" fill="#22c85c" d="M 308.5,210.5 C 304.855,211.987 301.188,213.487 297.5,215C 287.835,216.139 278.502,218.473 269.5,222C 265.46,224.357 262.627,227.524 261,231.5C 264.914,226.645 269.748,223.478 275.5,222C 271.2,225.459 267.866,229.626 265.5,234.5C 262.889,238.061 261.056,242.061 260,246.5C 259.333,253.167 259.333,259.833 260,266.5C 261.08,272.809 261.914,279.142 262.5,285.5C 258.833,274.833 255.167,264.167 251.5,253.5C 250.399,252.402 249.066,252.235 247.5,253C 247.833,253.333 248.167,253.667 248.5,254C 244.022,258.147 239.855,262.647 236,267.5C 236.305,265.557 236.305,263.557 236,261.5C 231.356,265.814 227.022,270.48 223,275.5C 222.372,280.326 220.872,284.826 218.5,289C 223.317,291.422 227.984,293.922 232.5,296.5C 220.504,294.51 211.171,288.51 204.5,278.5C 211.189,260.977 223.189,248.477 240.5,241C 244.445,237.565 247.778,233.732 250.5,229.5C 258.341,218.899 268.675,211.732 281.5,208C 299.779,209.048 308.945,200.548 309,182.5C 313.999,191.5 313.499,200.167 307.5,208.5C 307.863,209.183 308.196,209.85 308.5,210.5 Z" data-index="9"></path></g>
<g><path style="opacity:1" fill="#2fcc6e" d="M 279.5,227.5 C 284.918,250.098 291.585,272.432 299.5,294.5C 297.516,295.694 295.516,295.694 293.5,294.5C 290,288.833 286.5,283.167 283,277.5C 283.035,281.245 282.035,281.912 280,279.5C 274.007,267.909 271.507,255.575 272.5,242.5C 273.818,238.229 274.985,233.895 276,229.5C 277.044,230.623 277.71,231.956 278,233.5C 278.813,231.564 279.313,229.564 279.5,227.5 Z" data-index="10"></path></g>
<g><path style="opacity:1" fill="#46d763" d="M 279.5,222.5 C 279.5,224.167 279.5,225.833 279.5,227.5C 279.313,229.564 278.813,231.564 278,233.5C 277.71,231.956 277.044,230.623 276,229.5C 274.985,233.895 273.818,238.229 272.5,242.5C 271.21,243.058 270.377,244.058 270,245.5C 269.667,248.5 269.333,251.5 269,254.5C 267.748,252.999 266.748,251.332 266,249.5C 265.743,261.526 265.076,273.526 264,285.5C 263.617,286.056 263.117,286.389 262.5,286.5C 262.5,286.167 262.5,285.833 262.5,285.5C 261.914,279.142 261.08,272.809 260,266.5C 259.333,259.833 259.333,253.167 260,246.5C 261.056,242.061 262.889,238.061 265.5,234.5C 268.268,231.229 271.268,228.062 274.5,225C 276.078,223.906 277.745,223.072 279.5,222.5 Z" data-index="11"></path></g>
<g><path style="opacity:1" fill="#2bc95d" d="M 240.5,201.5 C 235.554,208.264 233.22,215.931 233.5,224.5C 231.544,227.539 229.21,230.372 226.5,233C 218.086,238.079 210.919,244.579 205,252.5C 203.259,255.309 202.092,258.309 201.5,261.5C 200.167,264.167 198.833,266.833 197.5,269.5C 191.892,265.561 186.892,260.894 182.5,255.5C 184.246,251.673 186.246,248.007 188.5,244.5C 192.336,240.922 196.669,238.422 201.5,237C 195.403,241.587 191.07,247.42 188.5,254.5C 196.762,250.113 203.928,243.78 210,235.5C 213.74,229.353 216.907,223.02 219.5,216.5C 221.675,210.667 225.008,205.5 229.5,201C 231.547,200.946 231.547,201.946 229.5,204C 232.265,203.28 234.599,201.613 236.5,199C 237.793,198.51 239.127,198.343 240.5,198.5C 240.5,199.5 240.5,200.5 240.5,201.5 Z" data-index="12"></path></g>
<g><path style="opacity:1" fill="#4ed561" d="M 251.5,253.5 C 246.242,267.438 241.075,281.438 236,295.5C 234.989,296.337 233.822,296.67 232.5,296.5C 227.984,293.922 223.317,291.422 218.5,289C 220.872,284.826 222.372,280.326 223,275.5C 227.022,270.48 231.356,265.814 236,261.5C 236.305,263.557 236.305,265.557 236,267.5C 239.855,262.647 244.022,258.147 248.5,254C 248.167,253.667 247.833,253.333 247.5,253C 249.066,252.235 250.399,252.402 251.5,253.5 Z" data-index="13"></path></g>
<g><path style="opacity: 1;" fill="#3fcb5d" d="M 182.5,255.5 C 186.892,260.894 191.892,265.561 197.5,269.5C 195.864,279.432 198.864,287.598 206.5,294C 211.844,297.115 217.511,299.448 223.5,301C 237.516,303.261 251.516,305.594 265.5,308C 266.931,308.465 268.097,309.299 269,310.5C 269.399,310.272 269.565,309.938 269.5,309.5C 271.179,309.285 272.179,309.952 272.5,311.5C 271.341,313.855 270.341,316.188 269.5,318.5C 261.514,313.504 252.847,310.504 243.5,309.5C 230.856,309.711 218.522,307.878 206.5,304C 198.402,300.288 191.402,295.121 185.5,288.5C 182.529,283.549 180.362,278.215 179,272.5C 178.466,268.141 178.632,263.808 179.5,259.5C 180.5,258.167 181.5,256.833 182.5,255.5 Z" data-index="14"></path></g>
<g></g>
<g><path style="opacity: 1;" fill="#79e267" d="M 188.5,244.5 C 186.246,248.007 184.246,251.673 182.5,255.5C 181.5,256.833 180.5,258.167 179.5,259.5C 175.65,270.306 177.65,279.973 185.5,288.5C 190.327,296.1 196.993,301.6 205.5,305C 217.938,309.806 230.604,311.306 243.5,309.5C 252.847,310.504 261.514,313.504 269.5,318.5C 269.5,320.833 269.5,323.167 269.5,325.5C 256.882,316.991 242.882,313.658 227.5,315.5C 218.523,315.754 209.69,314.754 201,312.5C 198.448,314.581 196.615,317.248 195.5,320.5C 192.5,321.167 189.5,321.833 186.5,322.5C 187.628,318.45 188.961,314.45 190.5,310.5C 170.16,299.314 164.66,282.981 174,261.5C 177.574,254.76 182.407,249.093 188.5,244.5 Z" data-index="16"></path></g>
<g><path style="opacity:1" fill="#a0e7a0" d="M 179.5,259.5 C 178.632,263.808 178.466,268.141 179,272.5C 180.362,278.215 182.529,283.549 185.5,288.5C 177.65,279.973 175.65,270.306 179.5,259.5 Z" data-index="17"></path></g>
<g><path style="opacity:1" fill="#2ac95b" d="M 272.5,242.5 C 271.507,255.575 274.007,267.909 280,279.5C 282.035,281.912 283.035,281.245 283,277.5C 286.5,283.167 290,288.833 293.5,294.5C 295.516,295.694 297.516,295.694 299.5,294.5C 299.833,294.5 300.167,294.5 300.5,294.5C 296.915,298.474 293.248,298.474 289.5,294.5C 288.103,292.018 287.269,289.352 287,286.5C 285.779,287.774 284.946,289.274 284.5,291C 287.519,299.722 288.019,308.555 286,317.5C 284.267,319.602 282.267,319.935 280,318.5C 279.501,314.486 279.667,310.486 280.5,306.5C 279.642,298.536 278.475,298.536 277,306.5C 275.264,308.063 273.764,309.73 272.5,311.5C 272.179,309.952 271.179,309.285 269.5,309.5C 266.964,301.893 264.631,294.226 262.5,286.5C 263.117,286.389 263.617,286.056 264,285.5C 265.076,273.526 265.743,261.526 266,249.5C 266.748,251.332 267.748,252.999 269,254.5C 269.333,251.5 269.667,248.5 270,245.5C 270.377,244.058 271.21,243.058 272.5,242.5 Z" data-index="18"></path></g>
<g><path style="opacity: 1;" fill="#9ce69f" d="M 185.5,288.5 C 191.402,295.121 198.402,300.288 206.5,304C 218.522,307.878 230.856,309.711 243.5,309.5C 230.604,311.306 217.938,309.806 205.5,305C 196.993,301.6 190.327,296.1 185.5,288.5 Z" data-index="19"></path></g>
<g><path style="opacity:1" fill="#21c561" d="M 309.5,279.5 C 313.475,288.6 311.641,296.266 304,302.5C 302.119,309.474 299.453,316.141 296,322.5C 291.223,326.296 286.223,329.63 281,332.5C 280.342,334.8 279.842,337.133 279.5,339.5C 280.47,342.437 281.137,345.437 281.5,348.5C 273.558,342.951 269.558,335.285 269.5,325.5C 269.5,323.167 269.5,320.833 269.5,318.5C 270.341,316.188 271.341,313.855 272.5,311.5C 273.764,309.73 275.264,308.063 277,306.5C 278.475,298.536 279.642,298.536 280.5,306.5C 279.667,310.486 279.501,314.486 280,318.5C 282.267,319.935 284.267,319.602 286,317.5C 288.019,308.555 287.519,299.722 284.5,291C 284.946,289.274 285.779,287.774 287,286.5C 287.269,289.352 288.103,292.018 289.5,294.5C 293.248,298.474 296.915,298.474 300.5,294.5C 301.222,294.082 301.722,293.416 302,292.5C 301.557,285.392 303.89,279.392 309,274.5C 309.494,276.134 309.66,277.801 309.5,279.5 Z" data-index="20"></path></g>
<g><path style="opacity:1" fill="#a8f46c" d="M 227.5,315.5 C 227.34,317.153 226.674,318.486 225.5,319.5C 225.167,319.5 224.833,319.5 224.5,319.5C 214.789,318.247 205.122,318.58 195.5,320.5C 196.615,317.248 198.448,314.581 201,312.5C 209.69,314.754 218.523,315.754 227.5,315.5 Z" data-index="21"></path></g>
<g><path style="opacity: 1;" fill="#5ad25b" d="M 224.5,319.5 C 216.363,329.886 206.03,336.719 193.5,340C 190.657,338.483 187.823,336.983 185,335.5C 182.941,337.07 180.774,338.403 178.5,339.5C 181.925,334.245 184.591,328.578 186.5,322.5C 189.5,321.833 192.5,321.167 195.5,320.5C 205.122,318.58 214.789,318.247 224.5,319.5 Z" data-index="22"></path></g>
<g><path style="opacity:1" fill="#78e265" d="M 305.5,308.5 C 307.352,311.551 308.686,314.884 309.5,318.5C 309.245,321.016 308.411,323.35 307,325.5C 302,329.833 297,334.167 292,338.5C 289.665,341.166 287.831,344.166 286.5,347.5C 285.311,348.429 283.978,348.762 282.5,348.5C 282.894,344.594 284.06,340.928 286,337.5C 291.154,333.257 296.488,329.257 302,325.5C 302.667,324.167 303.333,322.833 304,321.5C 304.228,317.083 304.728,312.75 305.5,308.5 Z" data-index="23"></path></g>
<g><path style="opacity: 1;" fill="#84e162" d="M 224.5,319.5 C 224.833,319.5 225.167,319.5 225.5,319.5C 222.652,328.034 219.652,336.534 216.5,345C 216.785,346.89 217.785,348.223 219.5,349C 202.167,349.667 184.833,349.667 167.5,349C 171.975,346.686 175.642,343.52 178.5,339.5C 180.774,338.403 182.941,337.07 185,335.5C 187.823,336.983 190.657,338.483 193.5,340C 206.03,336.719 216.363,329.886 224.5,319.5 Z" data-index="24"></path></g>
<g><path style="opacity: 1;" fill="#49cf5e" d="M 309.5,279.5 C 312.827,285.69 313.993,292.357 313,299.5C 310.665,302.665 308.165,305.665 305.5,308.5C 304.728,312.75 304.228,317.083 304,321.5C 303.333,322.833 302.667,324.167 302,325.5C 296.488,329.257 291.154,333.257 286,337.5C 284.06,340.928 282.894,344.594 282.5,348.5C 283.978,348.762 285.311,348.429 286.5,347.5C 287.831,344.166 289.665,341.166 292,338.5C 297,334.167 302,329.833 307,325.5C 308.411,323.35 309.245,321.016 309.5,318.5C 313.386,325.933 317.553,333.267 322,340.5C 324.167,344 327,346.833 330.5,349C 313.995,349.828 297.661,349.662 281.5,348.5C 281.137,345.437 280.47,342.437 279.5,339.5C 279.842,337.133 280.342,334.8 281,332.5C 286.223,329.63 291.223,326.296 296,322.5C 299.453,316.141 302.119,309.474 304,302.5C 311.641,296.266 313.475,288.6 309.5,279.5 Z" data-index="25"></path></g>
</svg>